<svg width="56" height="56" viewBox="0 0 56 56" fill="none" xmlns="http://www.w3.org/2000/svg">
<circle cx="28" cy="28" r="28" fill="#DADADA"/>
<g clip-path="url(#clip0_175_58)">
<path d="M27.9965 7L27.7343 7.88876V33.6762L27.9965 33.9372L39.9927 26.8616L27.9965 7Z" fill="#343434"/>
<path d="M27.9965 7L16 26.8616L27.9965 33.9372V21.4207V7Z" fill="#8C8C8C"/>
<path d="M27.9965 36.2035L27.8487 36.3833V45.5692L27.9965 45.9997L40 29.1316L27.9965 36.2035Z" fill="#3C3C3B"/>
<path d="M27.9965 45.9997V36.2035L16 29.1316L27.9965 45.9997Z" fill="#8C8C8C"/>
<path d="M27.9965 33.9371L39.9926 26.8616L27.9965 21.4207V33.9371Z" fill="#141414"/>
<path d="M16 26.8616L27.9965 33.9371V21.4207L16 26.8616Z" fill="#393939"/>
</g>
<defs>
<clipPath id="clip0_175_58">
<rect width="24" height="39" fill="white" transform="translate(16 7)"/>
</clipPath>
</defs>
</svg>
