<svg width="56" height="56" viewBox="0 0 56 56" fill="none" xmlns="http://www.w3.org/2000/svg">
<circle cx="28" cy="28" r="28" fill="#F6BC5B"/>
<path d="M28 40.75C28.3956 40.75 28.7633 40.5698 29.4987 40.2094L35.4098 37.3127C38.0255 36.0308 39.3334 35.3899 39.3334 34.375V21.625M28 40.75C27.6045 40.75 27.2367 40.5698 26.5013 40.2094L20.5902 37.3127C17.9745 36.0308 16.6667 35.3899 16.6667 34.375V21.625M28 40.75V28" stroke="#B98733" stroke-width="2" stroke-linecap="round" stroke-linejoin="round"/>
<path d="M26.5013 15.7906C27.2367 15.4302 27.6045 15.25 28 15.25C28.3956 15.25 28.7633 15.4302 29.4987 15.7906L35.4098 18.6873C38.0255 19.9691 39.3334 20.6101 39.3334 21.625C39.3334 22.6399 38.0255 23.2809 35.4098 24.5627L29.4987 27.4594C28.7633 27.8198 28.3956 28 28 28C27.6045 28 27.2367 27.8198 26.5013 27.4594L20.5902 24.5627C17.9745 23.2809 16.6667 22.6399 16.6667 21.625C16.6667 20.6101 17.9745 19.9691 20.5902 18.6873L26.5013 15.7906Z" stroke="#B98733" stroke-width="2" stroke-linejoin="round"/>
<line x1="44.7913" y1="5.61145" x2="10.7913" y2="49.6114" stroke="#B98733" stroke-width="2"/>
</svg>
