<svg width="56" height="56" viewBox="0 0 56 56" fill="none" xmlns="http://www.w3.org/2000/svg">
<circle cx="28" cy="28" r="28" fill="#DADADA"/>
<path d="M31.4375 24.1307C31.3466 23.3239 30.9716 22.6989 30.3125 22.2557C29.6534 21.8068 28.8239 21.5824 27.8239 21.5824C27.108 21.5824 26.4886 21.696 25.9659 21.9233C25.4432 22.1449 25.0369 22.4517 24.7472 22.8438C24.4631 23.2301 24.321 23.6705 24.321 24.1648C24.321 24.5795 24.4176 24.9375 24.6108 25.2386C24.8097 25.5398 25.0682 25.7926 25.3864 25.9972C25.7102 26.196 26.0568 26.3636 26.4261 26.5C26.7955 26.6307 27.1506 26.7386 27.4915 26.8239L29.196 27.267C29.7528 27.4034 30.3239 27.5881 30.9091 27.821C31.4943 28.054 32.0369 28.3608 32.5369 28.7415C33.0369 29.1222 33.4403 29.5938 33.7472 30.1562C34.0597 30.7188 34.2159 31.392 34.2159 32.1761C34.2159 33.1648 33.9602 34.0426 33.4489 34.8097C32.9432 35.5767 32.2074 36.1818 31.2415 36.625C30.2813 37.0682 29.1193 37.2898 27.7557 37.2898C26.4489 37.2898 25.3182 37.0824 24.3636 36.6676C23.4091 36.2528 22.6619 35.6648 22.1222 34.9034C21.5824 34.1364 21.2841 33.2273 21.2273 32.1761H23.8693C23.9205 32.8068 24.125 33.3324 24.483 33.7528C24.8466 34.1676 25.3097 34.4773 25.8722 34.6818C26.4403 34.8807 27.0625 34.9801 27.7386 34.9801C28.483 34.9801 29.1449 34.8636 29.7244 34.6307C30.3097 34.392 30.7699 34.0625 31.1051 33.642C31.4403 33.2159 31.608 32.7187 31.608 32.1506C31.608 31.6335 31.4602 31.2102 31.1648 30.8807C30.875 30.5511 30.4801 30.2784 29.9801 30.0625C29.4858 29.8466 28.9261 29.6562 28.3011 29.4915L26.2386 28.929C24.8409 28.5483 23.733 27.9886 22.9148 27.25C22.1023 26.5114 21.696 25.5341 21.696 24.3182C21.696 23.3125 21.9688 22.4347 22.5142 21.6847C23.0597 20.9347 23.7983 20.3523 24.7301 19.9375C25.6619 19.517 26.7131 19.3068 27.8835 19.3068C29.0653 19.3068 30.108 19.5142 31.0114 19.929C31.9205 20.3438 32.6364 20.9148 33.1591 21.642C33.6818 22.3636 33.9545 23.1932 33.9773 24.1307H31.4375Z" fill="black"/>
</svg>
