<svg width="25" height="25" viewBox="0 0 25 25" fill="none" xmlns="http://www.w3.org/2000/svg">
<g clip-path="url(#clip0_135_291)">
<path d="M12.5 25C19.4036 25 25 19.4036 25 12.5C25 5.59644 19.4036 0 12.5 0C5.59644 0 0 5.59644 0 12.5C0 19.4036 5.59644 25 12.5 25Z" fill="#0088CC"/>
<path fill-rule="evenodd" clip-rule="evenodd" d="M9.01786 8.25903H16.0268C16.2946 8.25903 16.5179 8.30368 16.7857 8.4376C17.0982 8.57153 17.2768 8.79475 17.3661 8.97332C17.3661 8.97332 17.3661 9.01796 17.4107 9.01796C17.5446 9.24118 17.6339 9.50903 17.6339 9.82153C17.6339 10.0894 17.5893 10.3572 17.4107 10.6251L12.9911 18.2144C12.9018 18.393 12.7232 18.4822 12.5 18.4822C12.3214 18.4822 12.1429 18.393 12.0089 18.2144L7.67857 10.6251C7.58929 10.4465 7.41071 10.2233 7.41071 9.86618C7.36607 9.55368 7.45536 9.28582 7.58929 9.01796C7.72321 8.7501 7.94643 8.52689 8.25893 8.4376C8.52679 8.25903 8.83929 8.25903 9.01786 8.25903ZM11.9643 9.33046H9.01786C8.83929 9.33046 8.75 9.33046 8.70536 9.3751C8.61607 9.41975 8.57143 9.46439 8.52679 9.55368C8.48214 9.59832 8.48214 9.6876 8.48214 9.77689C8.48214 9.82153 8.52679 9.86618 8.61607 10.0447L11.9643 15.8483V9.33046ZM13.0357 9.33046V15.893L16.4286 10.0447C16.4732 9.95546 16.4732 9.86618 16.4732 9.77689C16.4732 9.6876 16.4732 9.59832 16.4286 9.55368C16.3839 9.50903 16.3839 9.46439 16.3393 9.46439L16.2946 9.41975C16.2054 9.3751 16.1161 9.3751 15.9821 9.3751H13.0357V9.33046Z" fill="white"/>
</g>
<defs>
<clipPath id="clip0_135_291">
<rect width="25" height="25" fill="white"/>
</clipPath>
</defs>
</svg>
