<svg width="56" height="56" viewBox="0 0 56 56" fill="none" xmlns="http://www.w3.org/2000/svg">
<circle cx="28" cy="28" r="28" fill="#F8BDBE"/>
<g clip-path="url(#clip0_175_57)">
<path d="M44.6602 22.5437C43.0195 21.0289 40.75 18.7156 38.9016 17.075L38.7922 16.9984C38.6102 16.8523 38.405 16.7377 38.1852 16.6594C33.7281 15.8281 12.9852 11.9508 12.5805 12C12.4671 12.0159 12.3587 12.057 12.2633 12.1203L12.1594 12.2023C12.0314 12.3323 11.9343 12.4892 11.875 12.6617L11.8477 12.7328V13.1211V13.1812C14.1828 19.6836 23.4031 40.9844 25.2188 45.9828C25.3281 46.3219 25.5359 46.9672 25.9242 47H26.0117C26.2195 47 27.1055 45.8297 27.1055 45.8297C27.1055 45.8297 42.943 26.6234 44.5453 24.5781C44.7527 24.3262 44.9358 24.0552 45.0922 23.7687C45.1321 23.5446 45.1133 23.314 45.0376 23.0993C44.9619 22.8846 44.8318 22.6932 44.6602 22.5437ZM31.1688 24.7804L37.9281 19.175L41.893 22.8281L31.1688 24.7804ZM28.5438 24.414L16.9062 14.8765L35.7352 18.3492L28.5438 24.414ZM29.5938 26.9133L41.5047 24.9937L27.8875 41.4L29.5938 26.9133ZM15.3258 15.8281L27.5703 26.2187L25.7984 41.4109L15.3258 15.8281Z" fill="#FF060A"/>
</g>
<defs>
<clipPath id="clip0_175_57">
<rect width="35" height="35" fill="white" transform="translate(11 12)"/>
</clipPath>
</defs>
</svg>
